<mxfile host="app.diagrams.net" modified="2023-01-12T18:13:04.994Z" agent="5.0 (Windows NT 10.0; Win64; x64) AppleWebKit/537.36 (KHTML, like Gecko) Chrome/108.0.0.0 Safari/537.36" etag="zBzWcxGdi0-Iq1qPb4ui" version="15.6.8" type="github">
  <diagram id="C5RBs43oDa-KdzZeNtuy" name="Page-1">
    <mxGraphModel dx="1955" dy="887" grid="1" gridSize="10" guides="1" tooltips="1" connect="1" arrows="1" fold="1" page="1" pageScale="1" pageWidth="827" pageHeight="1169" math="0" shadow="0">
      <root>
        <mxCell id="WIyWlLk6GJQsqaUBKTNV-0" />
        <mxCell id="WIyWlLk6GJQsqaUBKTNV-1" parent="WIyWlLk6GJQsqaUBKTNV-0" />
        <mxCell id="WIyWlLk6GJQsqaUBKTNV-2" value="" style="rounded=0;html=1;jettySize=auto;orthogonalLoop=1;fontSize=11;endArrow=block;endFill=0;endSize=8;strokeWidth=1;shadow=0;labelBackgroundColor=none;edgeStyle=orthogonalEdgeStyle;startArrow=none;" parent="WIyWlLk6GJQsqaUBKTNV-1" source="OO1_cw7Xiw9hW-IsF1P8-1" target="WIyWlLk6GJQsqaUBKTNV-6" edge="1">
          <mxGeometry relative="1" as="geometry" />
        </mxCell>
        <mxCell id="OO1_cw7Xiw9hW-IsF1P8-5" style="edgeStyle=orthogonalEdgeStyle;rounded=0;orthogonalLoop=1;jettySize=auto;html=1;exitX=0.5;exitY=1;exitDx=0;exitDy=0;entryX=0.5;entryY=0;entryDx=0;entryDy=0;" edge="1" parent="WIyWlLk6GJQsqaUBKTNV-1" source="WIyWlLk6GJQsqaUBKTNV-3" target="OO1_cw7Xiw9hW-IsF1P8-0">
          <mxGeometry relative="1" as="geometry" />
        </mxCell>
        <mxCell id="WIyWlLk6GJQsqaUBKTNV-3" value="Start app" style="rounded=1;whiteSpace=wrap;html=1;fontSize=12;glass=0;strokeWidth=1;shadow=0;" parent="WIyWlLk6GJQsqaUBKTNV-1" vertex="1">
          <mxGeometry x="130" y="50" width="120" height="40" as="geometry" />
        </mxCell>
        <mxCell id="WIyWlLk6GJQsqaUBKTNV-4" value="Yes" style="rounded=0;html=1;jettySize=auto;orthogonalLoop=1;fontSize=11;endArrow=block;endFill=0;endSize=8;strokeWidth=1;shadow=0;labelBackgroundColor=none;edgeStyle=orthogonalEdgeStyle;entryX=0.5;entryY=0;entryDx=0;entryDy=0;" parent="WIyWlLk6GJQsqaUBKTNV-1" source="WIyWlLk6GJQsqaUBKTNV-6" target="WIyWlLk6GJQsqaUBKTNV-11" edge="1">
          <mxGeometry y="-20" relative="1" as="geometry">
            <mxPoint as="offset" />
            <mxPoint x="190" y="330" as="targetPoint" />
          </mxGeometry>
        </mxCell>
        <mxCell id="WIyWlLk6GJQsqaUBKTNV-5" value="No" style="edgeStyle=orthogonalEdgeStyle;rounded=0;html=1;jettySize=auto;orthogonalLoop=1;fontSize=11;endArrow=block;endFill=0;endSize=8;strokeWidth=1;shadow=0;labelBackgroundColor=none;entryX=1;entryY=0.5;entryDx=0;entryDy=0;" parent="WIyWlLk6GJQsqaUBKTNV-1" source="WIyWlLk6GJQsqaUBKTNV-6" target="OO1_cw7Xiw9hW-IsF1P8-1" edge="1">
          <mxGeometry x="-0.1538" y="-10" relative="1" as="geometry">
            <mxPoint as="offset" />
            <mxPoint x="340" y="210" as="targetPoint" />
            <Array as="points">
              <mxPoint x="360" y="270" />
              <mxPoint x="360" y="190" />
            </Array>
          </mxGeometry>
        </mxCell>
        <mxCell id="WIyWlLk6GJQsqaUBKTNV-6" value="Bluetooth device found?" style="rhombus;whiteSpace=wrap;html=1;shadow=0;fontFamily=Helvetica;fontSize=12;align=center;strokeWidth=1;spacing=6;spacingTop=-4;" parent="WIyWlLk6GJQsqaUBKTNV-1" vertex="1">
          <mxGeometry x="90" y="230" width="200" height="80" as="geometry" />
        </mxCell>
        <mxCell id="WIyWlLk6GJQsqaUBKTNV-11" value="Update Bluetooth device list and enable Connect button" style="rounded=1;whiteSpace=wrap;html=1;fontSize=12;glass=0;strokeWidth=1;shadow=0;" parent="WIyWlLk6GJQsqaUBKTNV-1" vertex="1">
          <mxGeometry x="85" y="350" width="210" height="40" as="geometry" />
        </mxCell>
        <mxCell id="OO1_cw7Xiw9hW-IsF1P8-7" style="edgeStyle=orthogonalEdgeStyle;rounded=0;orthogonalLoop=1;jettySize=auto;html=1;exitX=0.5;exitY=1;exitDx=0;exitDy=0;entryX=0.5;entryY=0;entryDx=0;entryDy=0;" edge="1" parent="WIyWlLk6GJQsqaUBKTNV-1" source="OO1_cw7Xiw9hW-IsF1P8-0" target="OO1_cw7Xiw9hW-IsF1P8-1">
          <mxGeometry relative="1" as="geometry" />
        </mxCell>
        <mxCell id="OO1_cw7Xiw9hW-IsF1P8-0" value="Initialize variables, screen, and camera" style="rounded=1;whiteSpace=wrap;html=1;fontSize=12;glass=0;strokeWidth=1;shadow=0;" vertex="1" parent="WIyWlLk6GJQsqaUBKTNV-1">
          <mxGeometry x="130" y="110" width="120" height="40" as="geometry" />
        </mxCell>
        <mxCell id="OO1_cw7Xiw9hW-IsF1P8-1" value="Scan for nearby Bluetooth devices" style="rounded=1;whiteSpace=wrap;html=1;fontSize=12;glass=0;strokeWidth=1;shadow=0;" vertex="1" parent="WIyWlLk6GJQsqaUBKTNV-1">
          <mxGeometry x="130" y="170" width="120" height="40" as="geometry" />
        </mxCell>
        <mxCell id="OO1_cw7Xiw9hW-IsF1P8-70" style="edgeStyle=orthogonalEdgeStyle;rounded=0;orthogonalLoop=1;jettySize=auto;html=1;exitX=0.5;exitY=1;exitDx=0;exitDy=0;entryX=0.5;entryY=0;entryDx=0;entryDy=0;" edge="1" parent="WIyWlLk6GJQsqaUBKTNV-1" source="OO1_cw7Xiw9hW-IsF1P8-8" target="OO1_cw7Xiw9hW-IsF1P8-9">
          <mxGeometry relative="1" as="geometry" />
        </mxCell>
        <mxCell id="OO1_cw7Xiw9hW-IsF1P8-8" value="User press Connect button" style="rounded=1;whiteSpace=wrap;html=1;fontSize=12;glass=0;strokeWidth=1;shadow=0;" vertex="1" parent="WIyWlLk6GJQsqaUBKTNV-1">
          <mxGeometry x="440" y="50" width="120" height="40" as="geometry" />
        </mxCell>
        <mxCell id="OO1_cw7Xiw9hW-IsF1P8-19" style="edgeStyle=orthogonalEdgeStyle;rounded=0;orthogonalLoop=1;jettySize=auto;html=1;exitX=0.5;exitY=1;exitDx=0;exitDy=0;entryX=0.5;entryY=0;entryDx=0;entryDy=0;" edge="1" parent="WIyWlLk6GJQsqaUBKTNV-1" source="OO1_cw7Xiw9hW-IsF1P8-9" target="OO1_cw7Xiw9hW-IsF1P8-10">
          <mxGeometry relative="1" as="geometry" />
        </mxCell>
        <mxCell id="OO1_cw7Xiw9hW-IsF1P8-9" value="User select device from Bluetooth device list&amp;nbsp;" style="rounded=1;whiteSpace=wrap;html=1;fontSize=12;glass=0;strokeWidth=1;shadow=0;" vertex="1" parent="WIyWlLk6GJQsqaUBKTNV-1">
          <mxGeometry x="425" y="120" width="150" height="60" as="geometry" />
        </mxCell>
        <mxCell id="OO1_cw7Xiw9hW-IsF1P8-21" style="edgeStyle=orthogonalEdgeStyle;rounded=0;orthogonalLoop=1;jettySize=auto;html=1;exitX=0.5;exitY=1;exitDx=0;exitDy=0;entryX=0.5;entryY=0;entryDx=0;entryDy=0;" edge="1" parent="WIyWlLk6GJQsqaUBKTNV-1" source="OO1_cw7Xiw9hW-IsF1P8-10" target="OO1_cw7Xiw9hW-IsF1P8-11">
          <mxGeometry relative="1" as="geometry" />
        </mxCell>
        <mxCell id="OO1_cw7Xiw9hW-IsF1P8-10" value="Connect the app with the selected device&amp;nbsp;" style="rounded=1;whiteSpace=wrap;html=1;fontSize=12;glass=0;strokeWidth=1;shadow=0;" vertex="1" parent="WIyWlLk6GJQsqaUBKTNV-1">
          <mxGeometry x="440" y="210" width="120" height="60" as="geometry" />
        </mxCell>
        <mxCell id="OO1_cw7Xiw9hW-IsF1P8-11" value="Connected?" style="rhombus;whiteSpace=wrap;html=1;shadow=0;fontFamily=Helvetica;fontSize=12;align=center;strokeWidth=1;spacing=6;spacingTop=-4;" vertex="1" parent="WIyWlLk6GJQsqaUBKTNV-1">
          <mxGeometry x="400" y="290" width="200" height="70" as="geometry" />
        </mxCell>
        <mxCell id="OO1_cw7Xiw9hW-IsF1P8-42" value="" style="edgeStyle=orthogonalEdgeStyle;rounded=0;orthogonalLoop=1;jettySize=auto;html=1;" edge="1" parent="WIyWlLk6GJQsqaUBKTNV-1" source="OO1_cw7Xiw9hW-IsF1P8-14" target="OO1_cw7Xiw9hW-IsF1P8-41">
          <mxGeometry relative="1" as="geometry" />
        </mxCell>
        <mxCell id="OO1_cw7Xiw9hW-IsF1P8-14" value="Enable Disconnect, On LED, Off LED, Take Image buttons&amp;nbsp;" style="rounded=1;whiteSpace=wrap;html=1;fontSize=12;glass=0;strokeWidth=1;shadow=0;" vertex="1" parent="WIyWlLk6GJQsqaUBKTNV-1">
          <mxGeometry x="360" y="400" width="280" height="40" as="geometry" />
        </mxCell>
        <mxCell id="OO1_cw7Xiw9hW-IsF1P8-30" value="No" style="endArrow=classic;html=1;rounded=0;exitX=1;exitY=0.5;exitDx=0;exitDy=0;" edge="1" parent="WIyWlLk6GJQsqaUBKTNV-1" source="OO1_cw7Xiw9hW-IsF1P8-11">
          <mxGeometry x="-0.2" y="15" width="50" height="50" relative="1" as="geometry">
            <mxPoint x="600" y="330" as="sourcePoint" />
            <mxPoint x="650" y="325" as="targetPoint" />
            <mxPoint as="offset" />
          </mxGeometry>
        </mxCell>
        <mxCell id="OO1_cw7Xiw9hW-IsF1P8-33" value="Yes" style="endArrow=classic;html=1;rounded=0;exitX=0.5;exitY=1;exitDx=0;exitDy=0;entryX=0.5;entryY=0;entryDx=0;entryDy=0;" edge="1" parent="WIyWlLk6GJQsqaUBKTNV-1" source="OO1_cw7Xiw9hW-IsF1P8-11" target="OO1_cw7Xiw9hW-IsF1P8-14">
          <mxGeometry y="-10" width="50" height="50" relative="1" as="geometry">
            <mxPoint x="460" y="350" as="sourcePoint" />
            <mxPoint x="510" y="300" as="targetPoint" />
            <mxPoint as="offset" />
          </mxGeometry>
        </mxCell>
        <mxCell id="OO1_cw7Xiw9hW-IsF1P8-34" value="Display reason and scan Bluetooth device again" style="rounded=1;whiteSpace=wrap;html=1;" vertex="1" parent="WIyWlLk6GJQsqaUBKTNV-1">
          <mxGeometry x="650" y="295" width="140" height="60" as="geometry" />
        </mxCell>
        <mxCell id="OO1_cw7Xiw9hW-IsF1P8-44" value="" style="edgeStyle=orthogonalEdgeStyle;rounded=0;orthogonalLoop=1;jettySize=auto;html=1;" edge="1" parent="WIyWlLk6GJQsqaUBKTNV-1" source="OO1_cw7Xiw9hW-IsF1P8-41" target="OO1_cw7Xiw9hW-IsF1P8-43">
          <mxGeometry relative="1" as="geometry" />
        </mxCell>
        <mxCell id="OO1_cw7Xiw9hW-IsF1P8-45" value="Yes" style="edgeLabel;html=1;align=center;verticalAlign=middle;resizable=0;points=[];" vertex="1" connectable="0" parent="OO1_cw7Xiw9hW-IsF1P8-44">
          <mxGeometry x="-0.2952" relative="1" as="geometry">
            <mxPoint x="-10" as="offset" />
          </mxGeometry>
        </mxCell>
        <mxCell id="OO1_cw7Xiw9hW-IsF1P8-46" style="edgeStyle=orthogonalEdgeStyle;rounded=0;orthogonalLoop=1;jettySize=auto;html=1;exitX=0.972;exitY=0.509;exitDx=0;exitDy=0;exitPerimeter=0;" edge="1" parent="WIyWlLk6GJQsqaUBKTNV-1" source="OO1_cw7Xiw9hW-IsF1P8-41">
          <mxGeometry relative="1" as="geometry">
            <mxPoint x="500" y="470" as="targetPoint" />
            <Array as="points">
              <mxPoint x="700" y="525" />
              <mxPoint x="700" y="450" />
              <mxPoint x="500" y="450" />
            </Array>
          </mxGeometry>
        </mxCell>
        <mxCell id="OO1_cw7Xiw9hW-IsF1P8-47" value="No" style="edgeLabel;html=1;align=center;verticalAlign=middle;resizable=0;points=[];" vertex="1" connectable="0" parent="OO1_cw7Xiw9hW-IsF1P8-46">
          <mxGeometry x="-0.7103" y="1" relative="1" as="geometry">
            <mxPoint x="11" y="-28" as="offset" />
          </mxGeometry>
        </mxCell>
        <mxCell id="OO1_cw7Xiw9hW-IsF1P8-41" value="&lt;span&gt;Check if user input values for&lt;br&gt;Set temperature, Assay time, and Imaging frequency&lt;/span&gt;" style="rhombus;whiteSpace=wrap;html=1;rounded=1;shadow=0;strokeWidth=1;glass=0;" vertex="1" parent="WIyWlLk6GJQsqaUBKTNV-1">
          <mxGeometry x="320" y="470" width="360" height="110" as="geometry" />
        </mxCell>
        <mxCell id="OO1_cw7Xiw9hW-IsF1P8-43" value="Enable Start button" style="whiteSpace=wrap;html=1;rounded=1;shadow=0;strokeWidth=1;glass=0;" vertex="1" parent="WIyWlLk6GJQsqaUBKTNV-1">
          <mxGeometry x="440" y="620" width="120" height="60" as="geometry" />
        </mxCell>
        <mxCell id="OO1_cw7Xiw9hW-IsF1P8-50" value="" style="edgeStyle=orthogonalEdgeStyle;rounded=0;orthogonalLoop=1;jettySize=auto;html=1;" edge="1" parent="WIyWlLk6GJQsqaUBKTNV-1" source="OO1_cw7Xiw9hW-IsF1P8-48" target="OO1_cw7Xiw9hW-IsF1P8-49">
          <mxGeometry relative="1" as="geometry" />
        </mxCell>
        <mxCell id="OO1_cw7Xiw9hW-IsF1P8-48" value="User press Start button" style="rounded=1;whiteSpace=wrap;html=1;" vertex="1" parent="WIyWlLk6GJQsqaUBKTNV-1">
          <mxGeometry x="140" y="660" width="120" height="60" as="geometry" />
        </mxCell>
        <mxCell id="OO1_cw7Xiw9hW-IsF1P8-52" value="" style="edgeStyle=orthogonalEdgeStyle;rounded=0;orthogonalLoop=1;jettySize=auto;html=1;" edge="1" parent="WIyWlLk6GJQsqaUBKTNV-1" source="OO1_cw7Xiw9hW-IsF1P8-49" target="OO1_cw7Xiw9hW-IsF1P8-51">
          <mxGeometry relative="1" as="geometry" />
        </mxCell>
        <mxCell id="OO1_cw7Xiw9hW-IsF1P8-49" value="Send Set temperature, Assay time, and Imaging frequency to TinyPICO ESP32" style="whiteSpace=wrap;html=1;rounded=1;" vertex="1" parent="WIyWlLk6GJQsqaUBKTNV-1">
          <mxGeometry x="60" y="750" width="280" height="60" as="geometry" />
        </mxCell>
        <mxCell id="OO1_cw7Xiw9hW-IsF1P8-54" value="" style="edgeStyle=orthogonalEdgeStyle;rounded=0;orthogonalLoop=1;jettySize=auto;html=1;" edge="1" parent="WIyWlLk6GJQsqaUBKTNV-1" source="OO1_cw7Xiw9hW-IsF1P8-51" target="OO1_cw7Xiw9hW-IsF1P8-53">
          <mxGeometry relative="1" as="geometry" />
        </mxCell>
        <mxCell id="OO1_cw7Xiw9hW-IsF1P8-51" value="Read info received from TinyPICO ESP32 (system status, current temperature, led status, take picture or not, remaining assay time)&amp;nbsp;and display on app screen&amp;nbsp;" style="whiteSpace=wrap;html=1;rounded=1;" vertex="1" parent="WIyWlLk6GJQsqaUBKTNV-1">
          <mxGeometry x="30" y="840" width="340" height="60" as="geometry" />
        </mxCell>
        <mxCell id="OO1_cw7Xiw9hW-IsF1P8-56" value="Yes" style="edgeStyle=orthogonalEdgeStyle;rounded=0;orthogonalLoop=1;jettySize=auto;html=1;" edge="1" parent="WIyWlLk6GJQsqaUBKTNV-1" source="OO1_cw7Xiw9hW-IsF1P8-53" target="OO1_cw7Xiw9hW-IsF1P8-55">
          <mxGeometry x="0.2002" y="-10" relative="1" as="geometry">
            <mxPoint as="offset" />
          </mxGeometry>
        </mxCell>
        <mxCell id="OO1_cw7Xiw9hW-IsF1P8-67" style="edgeStyle=orthogonalEdgeStyle;rounded=0;orthogonalLoop=1;jettySize=auto;html=1;exitX=1;exitY=0.5;exitDx=0;exitDy=0;entryX=0.5;entryY=0;entryDx=0;entryDy=0;" edge="1" parent="WIyWlLk6GJQsqaUBKTNV-1" source="OO1_cw7Xiw9hW-IsF1P8-53" target="OO1_cw7Xiw9hW-IsF1P8-51">
          <mxGeometry relative="1" as="geometry">
            <Array as="points">
              <mxPoint x="430" y="955" />
              <mxPoint x="430" y="820" />
              <mxPoint x="200" y="820" />
            </Array>
          </mxGeometry>
        </mxCell>
        <mxCell id="OO1_cw7Xiw9hW-IsF1P8-68" value="No" style="edgeLabel;html=1;align=center;verticalAlign=middle;resizable=0;points=[];" vertex="1" connectable="0" parent="OO1_cw7Xiw9hW-IsF1P8-67">
          <mxGeometry x="-0.7907" y="1" relative="1" as="geometry">
            <mxPoint x="4" y="-14" as="offset" />
          </mxGeometry>
        </mxCell>
        <mxCell id="OO1_cw7Xiw9hW-IsF1P8-53" value="Take picture?" style="rhombus;whiteSpace=wrap;html=1;rounded=1;" vertex="1" parent="WIyWlLk6GJQsqaUBKTNV-1">
          <mxGeometry x="120" y="930" width="160" height="50" as="geometry" />
        </mxCell>
        <mxCell id="OO1_cw7Xiw9hW-IsF1P8-61" value="" style="edgeStyle=orthogonalEdgeStyle;rounded=0;orthogonalLoop=1;jettySize=auto;html=1;" edge="1" parent="WIyWlLk6GJQsqaUBKTNV-1" source="OO1_cw7Xiw9hW-IsF1P8-55" target="OO1_cw7Xiw9hW-IsF1P8-60">
          <mxGeometry relative="1" as="geometry" />
        </mxCell>
        <mxCell id="OO1_cw7Xiw9hW-IsF1P8-55" value="App take picture (i.e. fluorescence image)" style="whiteSpace=wrap;html=1;rounded=1;" vertex="1" parent="WIyWlLk6GJQsqaUBKTNV-1">
          <mxGeometry x="140" y="1010" width="120" height="50" as="geometry" />
        </mxCell>
        <mxCell id="OO1_cw7Xiw9hW-IsF1P8-63" value="" style="edgeStyle=orthogonalEdgeStyle;rounded=0;orthogonalLoop=1;jettySize=auto;html=1;" edge="1" parent="WIyWlLk6GJQsqaUBKTNV-1" source="OO1_cw7Xiw9hW-IsF1P8-60" target="OO1_cw7Xiw9hW-IsF1P8-62">
          <mxGeometry relative="1" as="geometry" />
        </mxCell>
        <mxCell id="OO1_cw7Xiw9hW-IsF1P8-60" value="Display picture on screen and also store on DCIM folder of phone" style="whiteSpace=wrap;html=1;rounded=1;" vertex="1" parent="WIyWlLk6GJQsqaUBKTNV-1">
          <mxGeometry x="70" y="1080" width="260" height="60" as="geometry" />
        </mxCell>
        <mxCell id="OO1_cw7Xiw9hW-IsF1P8-66" style="edgeStyle=orthogonalEdgeStyle;rounded=0;orthogonalLoop=1;jettySize=auto;html=1;exitX=0.5;exitY=1;exitDx=0;exitDy=0;entryX=0.5;entryY=0;entryDx=0;entryDy=0;" edge="1" parent="WIyWlLk6GJQsqaUBKTNV-1" source="OO1_cw7Xiw9hW-IsF1P8-62" target="OO1_cw7Xiw9hW-IsF1P8-51">
          <mxGeometry relative="1" as="geometry">
            <Array as="points">
              <mxPoint x="200" y="1249" />
              <mxPoint x="430" y="1249" />
              <mxPoint x="430" y="820" />
              <mxPoint x="200" y="820" />
            </Array>
          </mxGeometry>
        </mxCell>
        <mxCell id="OO1_cw7Xiw9hW-IsF1P8-62" value="&lt;span&gt;Inform TinyPICO ESP32 that picture has been taken&lt;/span&gt;" style="whiteSpace=wrap;html=1;rounded=1;" vertex="1" parent="WIyWlLk6GJQsqaUBKTNV-1">
          <mxGeometry x="70" y="1169" width="260" height="60" as="geometry" />
        </mxCell>
        <mxCell id="OO1_cw7Xiw9hW-IsF1P8-73" value="" style="edgeStyle=orthogonalEdgeStyle;rounded=0;orthogonalLoop=1;jettySize=auto;html=1;" edge="1" parent="WIyWlLk6GJQsqaUBKTNV-1" source="OO1_cw7Xiw9hW-IsF1P8-71" target="OO1_cw7Xiw9hW-IsF1P8-72">
          <mxGeometry relative="1" as="geometry" />
        </mxCell>
        <mxCell id="OO1_cw7Xiw9hW-IsF1P8-71" value="Start" style="rounded=1;whiteSpace=wrap;html=1;" vertex="1" parent="WIyWlLk6GJQsqaUBKTNV-1">
          <mxGeometry x="140" y="1360" width="120" height="60" as="geometry" />
        </mxCell>
        <mxCell id="OO1_cw7Xiw9hW-IsF1P8-75" value="" style="edgeStyle=orthogonalEdgeStyle;rounded=0;orthogonalLoop=1;jettySize=auto;html=1;" edge="1" parent="WIyWlLk6GJQsqaUBKTNV-1" source="OO1_cw7Xiw9hW-IsF1P8-72" target="OO1_cw7Xiw9hW-IsF1P8-74">
          <mxGeometry relative="1" as="geometry" />
        </mxCell>
        <mxCell id="OO1_cw7Xiw9hW-IsF1P8-72" value="Set up PWM pins for PTC heater and LED. Set up Serial port. Set up Bluetooth." style="whiteSpace=wrap;html=1;rounded=1;" vertex="1" parent="WIyWlLk6GJQsqaUBKTNV-1">
          <mxGeometry x="80" y="1440" width="240" height="60" as="geometry" />
        </mxCell>
        <mxCell id="OO1_cw7Xiw9hW-IsF1P8-77" value="Yes" style="edgeStyle=orthogonalEdgeStyle;rounded=0;orthogonalLoop=1;jettySize=auto;html=1;" edge="1" parent="WIyWlLk6GJQsqaUBKTNV-1" source="OO1_cw7Xiw9hW-IsF1P8-74" target="OO1_cw7Xiw9hW-IsF1P8-76">
          <mxGeometry x="-0.3333" y="-20" relative="1" as="geometry">
            <mxPoint as="offset" />
          </mxGeometry>
        </mxCell>
        <mxCell id="OO1_cw7Xiw9hW-IsF1P8-79" value="No" style="edgeStyle=orthogonalEdgeStyle;rounded=0;orthogonalLoop=1;jettySize=auto;html=1;" edge="1" parent="WIyWlLk6GJQsqaUBKTNV-1" source="OO1_cw7Xiw9hW-IsF1P8-74" target="OO1_cw7Xiw9hW-IsF1P8-78">
          <mxGeometry x="-0.3333" y="10" relative="1" as="geometry">
            <mxPoint as="offset" />
          </mxGeometry>
        </mxCell>
        <mxCell id="OO1_cw7Xiw9hW-IsF1P8-74" value="Is &quot;Start assay&quot; true?" style="rhombus;whiteSpace=wrap;html=1;rounded=1;" vertex="1" parent="WIyWlLk6GJQsqaUBKTNV-1">
          <mxGeometry x="110" y="1570" width="180" height="80" as="geometry" />
        </mxCell>
        <mxCell id="OO1_cw7Xiw9hW-IsF1P8-81" style="edgeStyle=orthogonalEdgeStyle;rounded=0;orthogonalLoop=1;jettySize=auto;html=1;exitX=0.5;exitY=1;exitDx=0;exitDy=0;entryX=0.5;entryY=0;entryDx=0;entryDy=0;" edge="1" parent="WIyWlLk6GJQsqaUBKTNV-1" source="OO1_cw7Xiw9hW-IsF1P8-76" target="OO1_cw7Xiw9hW-IsF1P8-74">
          <mxGeometry relative="1" as="geometry">
            <Array as="points">
              <mxPoint x="200" y="1774" />
              <mxPoint x="80" y="1774" />
              <mxPoint x="80" y="1530" />
              <mxPoint x="200" y="1530" />
            </Array>
          </mxGeometry>
        </mxCell>
        <mxCell id="OO1_cw7Xiw9hW-IsF1P8-76" value="Call setTemp function to start assay" style="whiteSpace=wrap;html=1;rounded=1;" vertex="1" parent="WIyWlLk6GJQsqaUBKTNV-1">
          <mxGeometry x="140" y="1694" width="120" height="60" as="geometry" />
        </mxCell>
        <mxCell id="OO1_cw7Xiw9hW-IsF1P8-80" style="edgeStyle=orthogonalEdgeStyle;rounded=0;orthogonalLoop=1;jettySize=auto;html=1;exitX=0.5;exitY=0;exitDx=0;exitDy=0;entryX=0.5;entryY=0;entryDx=0;entryDy=0;" edge="1" parent="WIyWlLk6GJQsqaUBKTNV-1" source="OO1_cw7Xiw9hW-IsF1P8-78" target="OO1_cw7Xiw9hW-IsF1P8-74">
          <mxGeometry relative="1" as="geometry">
            <Array as="points">
              <mxPoint x="420" y="1530" />
              <mxPoint x="200" y="1530" />
            </Array>
          </mxGeometry>
        </mxCell>
        <mxCell id="OO1_cw7Xiw9hW-IsF1P8-78" value="Send info about system status, current temperature, led status, etc. to Mobile App" style="whiteSpace=wrap;html=1;rounded=1;" vertex="1" parent="WIyWlLk6GJQsqaUBKTNV-1">
          <mxGeometry x="320" y="1580" width="200" height="60" as="geometry" />
        </mxCell>
        <mxCell id="OO1_cw7Xiw9hW-IsF1P8-114" style="edgeStyle=orthogonalEdgeStyle;rounded=0;orthogonalLoop=1;jettySize=auto;html=1;exitX=0.5;exitY=1;exitDx=0;exitDy=0;entryX=0.5;entryY=0;entryDx=0;entryDy=0;" edge="1" parent="WIyWlLk6GJQsqaUBKTNV-1" source="OO1_cw7Xiw9hW-IsF1P8-82" target="OO1_cw7Xiw9hW-IsF1P8-83">
          <mxGeometry relative="1" as="geometry" />
        </mxCell>
        <mxCell id="OO1_cw7Xiw9hW-IsF1P8-82" value="setTemp function Start" style="rounded=1;whiteSpace=wrap;html=1;" vertex="1" parent="WIyWlLk6GJQsqaUBKTNV-1">
          <mxGeometry x="1320" y="1330" width="120" height="60" as="geometry" />
        </mxCell>
        <mxCell id="OO1_cw7Xiw9hW-IsF1P8-86" value="" style="edgeStyle=orthogonalEdgeStyle;rounded=0;orthogonalLoop=1;jettySize=auto;html=1;" edge="1" parent="WIyWlLk6GJQsqaUBKTNV-1" source="OO1_cw7Xiw9hW-IsF1P8-83" target="OO1_cw7Xiw9hW-IsF1P8-85">
          <mxGeometry relative="1" as="geometry" />
        </mxCell>
        <mxCell id="OO1_cw7Xiw9hW-IsF1P8-83" value="Initialize variables" style="whiteSpace=wrap;html=1;rounded=1;" vertex="1" parent="WIyWlLk6GJQsqaUBKTNV-1">
          <mxGeometry x="1320" y="1410" width="120" height="60" as="geometry" />
        </mxCell>
        <mxCell id="OO1_cw7Xiw9hW-IsF1P8-88" value="" style="edgeStyle=orthogonalEdgeStyle;rounded=0;orthogonalLoop=1;jettySize=auto;html=1;" edge="1" parent="WIyWlLk6GJQsqaUBKTNV-1" source="OO1_cw7Xiw9hW-IsF1P8-85" target="OO1_cw7Xiw9hW-IsF1P8-87">
          <mxGeometry relative="1" as="geometry" />
        </mxCell>
        <mxCell id="OO1_cw7Xiw9hW-IsF1P8-89" value="No" style="edgeLabel;html=1;align=center;verticalAlign=middle;resizable=0;points=[];" vertex="1" connectable="0" parent="OO1_cw7Xiw9hW-IsF1P8-88">
          <mxGeometry x="-0.2889" y="-1" relative="1" as="geometry">
            <mxPoint x="-9" y="-4" as="offset" />
          </mxGeometry>
        </mxCell>
        <mxCell id="OO1_cw7Xiw9hW-IsF1P8-96" value="Yes" style="edgeStyle=orthogonalEdgeStyle;rounded=0;orthogonalLoop=1;jettySize=auto;html=1;" edge="1" parent="WIyWlLk6GJQsqaUBKTNV-1" source="OO1_cw7Xiw9hW-IsF1P8-85" target="OO1_cw7Xiw9hW-IsF1P8-95">
          <mxGeometry y="10" relative="1" as="geometry">
            <mxPoint as="offset" />
          </mxGeometry>
        </mxCell>
        <mxCell id="OO1_cw7Xiw9hW-IsF1P8-85" value="Is &quot;Assay done&quot; true?" style="rhombus;whiteSpace=wrap;html=1;rounded=1;" vertex="1" parent="WIyWlLk6GJQsqaUBKTNV-1">
          <mxGeometry x="1280" y="1510" width="200" height="80" as="geometry" />
        </mxCell>
        <mxCell id="OO1_cw7Xiw9hW-IsF1P8-93" value="" style="edgeStyle=orthogonalEdgeStyle;rounded=0;orthogonalLoop=1;jettySize=auto;html=1;" edge="1" parent="WIyWlLk6GJQsqaUBKTNV-1" source="OO1_cw7Xiw9hW-IsF1P8-87" target="OO1_cw7Xiw9hW-IsF1P8-92">
          <mxGeometry relative="1" as="geometry" />
        </mxCell>
        <mxCell id="OO1_cw7Xiw9hW-IsF1P8-87" value="Control temperature of PTC heater to reach &quot;Set temperature&quot; and hold there, turn on LED at the &quot;Imaging frequency&quot;, and inform Mobile App to take picture when LED is on. Send info about system status, current temperature, led status, etc. to Mobile App. Set &quot;Assay done&quot; to True after reaching &quot;Assay time&quot;" style="whiteSpace=wrap;html=1;rounded=1;" vertex="1" parent="WIyWlLk6GJQsqaUBKTNV-1">
          <mxGeometry x="1240" y="1620" width="280" height="140" as="geometry" />
        </mxCell>
        <mxCell id="OO1_cw7Xiw9hW-IsF1P8-94" style="edgeStyle=orthogonalEdgeStyle;rounded=0;orthogonalLoop=1;jettySize=auto;html=1;exitX=0.5;exitY=1;exitDx=0;exitDy=0;entryX=0.5;entryY=0;entryDx=0;entryDy=0;" edge="1" parent="WIyWlLk6GJQsqaUBKTNV-1" source="OO1_cw7Xiw9hW-IsF1P8-92" target="OO1_cw7Xiw9hW-IsF1P8-85">
          <mxGeometry relative="1" as="geometry">
            <Array as="points">
              <mxPoint x="1380" y="1850" />
              <mxPoint x="1220" y="1850" />
              <mxPoint x="1220" y="1490" />
              <mxPoint x="1380" y="1490" />
            </Array>
          </mxGeometry>
        </mxCell>
        <mxCell id="OO1_cw7Xiw9hW-IsF1P8-92" value="Delay" style="whiteSpace=wrap;html=1;rounded=1;" vertex="1" parent="WIyWlLk6GJQsqaUBKTNV-1">
          <mxGeometry x="1320" y="1800" width="120" height="30" as="geometry" />
        </mxCell>
        <mxCell id="OO1_cw7Xiw9hW-IsF1P8-95" value="End of setTemp function" style="whiteSpace=wrap;html=1;rounded=1;" vertex="1" parent="WIyWlLk6GJQsqaUBKTNV-1">
          <mxGeometry x="1520" y="1520" width="120" height="60" as="geometry" />
        </mxCell>
        <mxCell id="OO1_cw7Xiw9hW-IsF1P8-99" value="" style="edgeStyle=orthogonalEdgeStyle;rounded=0;orthogonalLoop=1;jettySize=auto;html=1;" edge="1" parent="WIyWlLk6GJQsqaUBKTNV-1" source="OO1_cw7Xiw9hW-IsF1P8-97" target="OO1_cw7Xiw9hW-IsF1P8-98">
          <mxGeometry relative="1" as="geometry" />
        </mxCell>
        <mxCell id="OO1_cw7Xiw9hW-IsF1P8-97" value="Received command from Mobile App via Bluetooth" style="rounded=1;whiteSpace=wrap;html=1;" vertex="1" parent="WIyWlLk6GJQsqaUBKTNV-1">
          <mxGeometry x="630" y="1330" width="180" height="50" as="geometry" />
        </mxCell>
        <mxCell id="OO1_cw7Xiw9hW-IsF1P8-101" value="" style="edgeStyle=orthogonalEdgeStyle;rounded=0;orthogonalLoop=1;jettySize=auto;html=1;" edge="1" parent="WIyWlLk6GJQsqaUBKTNV-1" source="OO1_cw7Xiw9hW-IsF1P8-98" target="OO1_cw7Xiw9hW-IsF1P8-100">
          <mxGeometry relative="1" as="geometry" />
        </mxCell>
        <mxCell id="OO1_cw7Xiw9hW-IsF1P8-98" value="Parse the command" style="whiteSpace=wrap;html=1;rounded=1;" vertex="1" parent="WIyWlLk6GJQsqaUBKTNV-1">
          <mxGeometry x="660" y="1410" width="120" height="60" as="geometry" />
        </mxCell>
        <mxCell id="OO1_cw7Xiw9hW-IsF1P8-103" value="Yes" style="edgeStyle=orthogonalEdgeStyle;rounded=0;orthogonalLoop=1;jettySize=auto;html=1;" edge="1" parent="WIyWlLk6GJQsqaUBKTNV-1" source="OO1_cw7Xiw9hW-IsF1P8-100" target="OO1_cw7Xiw9hW-IsF1P8-102">
          <mxGeometry x="-0.5349" y="15" relative="1" as="geometry">
            <mxPoint as="offset" />
          </mxGeometry>
        </mxCell>
        <mxCell id="OO1_cw7Xiw9hW-IsF1P8-105" value="No" style="edgeStyle=orthogonalEdgeStyle;rounded=0;orthogonalLoop=1;jettySize=auto;html=1;" edge="1" parent="WIyWlLk6GJQsqaUBKTNV-1" source="OO1_cw7Xiw9hW-IsF1P8-100" target="OO1_cw7Xiw9hW-IsF1P8-104">
          <mxGeometry x="0.2" y="-10" relative="1" as="geometry">
            <mxPoint as="offset" />
          </mxGeometry>
        </mxCell>
        <mxCell id="OO1_cw7Xiw9hW-IsF1P8-100" value="Is the command about starting an assay?" style="rhombus;whiteSpace=wrap;html=1;rounded=1;" vertex="1" parent="WIyWlLk6GJQsqaUBKTNV-1">
          <mxGeometry x="580" y="1500" width="280" height="90" as="geometry" />
        </mxCell>
        <mxCell id="OO1_cw7Xiw9hW-IsF1P8-102" value="Parse &quot;Set temperature&quot;, &quot;Assay time&quot;, &quot;Imaging frequency&quot; from the command. Set &quot;Start assay&quot; to True" style="whiteSpace=wrap;html=1;rounded=1;" vertex="1" parent="WIyWlLk6GJQsqaUBKTNV-1">
          <mxGeometry x="897" y="1515" width="200" height="60" as="geometry" />
        </mxCell>
        <mxCell id="OO1_cw7Xiw9hW-IsF1P8-107" value="Yes" style="edgeStyle=orthogonalEdgeStyle;rounded=0;orthogonalLoop=1;jettySize=auto;html=1;" edge="1" parent="WIyWlLk6GJQsqaUBKTNV-1" source="OO1_cw7Xiw9hW-IsF1P8-104" target="OO1_cw7Xiw9hW-IsF1P8-106">
          <mxGeometry x="-0.5341" y="10" relative="1" as="geometry">
            <mxPoint as="offset" />
          </mxGeometry>
        </mxCell>
        <mxCell id="OO1_cw7Xiw9hW-IsF1P8-109" value="No" style="edgeStyle=orthogonalEdgeStyle;rounded=0;orthogonalLoop=1;jettySize=auto;html=1;" edge="1" parent="WIyWlLk6GJQsqaUBKTNV-1" source="OO1_cw7Xiw9hW-IsF1P8-104" target="OO1_cw7Xiw9hW-IsF1P8-108">
          <mxGeometry x="-0.1111" y="-10" relative="1" as="geometry">
            <mxPoint as="offset" />
          </mxGeometry>
        </mxCell>
        <mxCell id="OO1_cw7Xiw9hW-IsF1P8-104" value="Is the command about turning on/off LED" style="rhombus;whiteSpace=wrap;html=1;rounded=1;" vertex="1" parent="WIyWlLk6GJQsqaUBKTNV-1">
          <mxGeometry x="580" y="1620" width="280" height="80" as="geometry" />
        </mxCell>
        <mxCell id="OO1_cw7Xiw9hW-IsF1P8-106" value="Turn on/off LED" style="whiteSpace=wrap;html=1;rounded=1;" vertex="1" parent="WIyWlLk6GJQsqaUBKTNV-1">
          <mxGeometry x="897" y="1630" width="200" height="60" as="geometry" />
        </mxCell>
        <mxCell id="OO1_cw7Xiw9hW-IsF1P8-111" value="Yes" style="edgeStyle=orthogonalEdgeStyle;rounded=0;orthogonalLoop=1;jettySize=auto;html=1;" edge="1" parent="WIyWlLk6GJQsqaUBKTNV-1" source="OO1_cw7Xiw9hW-IsF1P8-108" target="OO1_cw7Xiw9hW-IsF1P8-110">
          <mxGeometry x="-0.5341" y="10" relative="1" as="geometry">
            <mxPoint as="offset" />
          </mxGeometry>
        </mxCell>
        <mxCell id="OO1_cw7Xiw9hW-IsF1P8-113" value="No" style="edgeStyle=orthogonalEdgeStyle;rounded=0;orthogonalLoop=1;jettySize=auto;html=1;" edge="1" parent="WIyWlLk6GJQsqaUBKTNV-1" source="OO1_cw7Xiw9hW-IsF1P8-108" target="OO1_cw7Xiw9hW-IsF1P8-112">
          <mxGeometry x="-0.3344" y="-10" relative="1" as="geometry">
            <mxPoint as="offset" />
          </mxGeometry>
        </mxCell>
        <mxCell id="OO1_cw7Xiw9hW-IsF1P8-108" value="Is the command about fluorescence&lt;br&gt;picture taken" style="rhombus;whiteSpace=wrap;html=1;rounded=1;" vertex="1" parent="WIyWlLk6GJQsqaUBKTNV-1">
          <mxGeometry x="580" y="1745" width="280" height="70" as="geometry" />
        </mxCell>
        <mxCell id="OO1_cw7Xiw9hW-IsF1P8-110" value="Turn off LED" style="whiteSpace=wrap;html=1;rounded=1;" vertex="1" parent="WIyWlLk6GJQsqaUBKTNV-1">
          <mxGeometry x="897" y="1750" width="200" height="60" as="geometry" />
        </mxCell>
        <mxCell id="OO1_cw7Xiw9hW-IsF1P8-112" value="End" style="whiteSpace=wrap;html=1;rounded=1;" vertex="1" parent="WIyWlLk6GJQsqaUBKTNV-1">
          <mxGeometry x="660" y="1850" width="120" height="30" as="geometry" />
        </mxCell>
      </root>
    </mxGraphModel>
  </diagram>
</mxfile>
